# xmcd CD database file
#
# Track frame offsets:
#	183
#	20525
#	39445
#	57468
#	70113
#	85393
#	112425
#	128383
#	142525
#	168210
#	201645
#	212808
#	232913
#	256533
#	275108
#
# Disc length: 3915 seconds
#
# Revision: 1
# Processed by: cddbd v1.5PL3 Copyright (c) Steve Scherf et al.
# Submitted via: CDex 1.51
#
DISCID=d40f490f
DTITLE=Roger Marks' Armada Jazz Band - Dixie After Dark
DYEAR=1994
DGENRE=Jazz
TTITLE0=Puttin' On The Ritz
TTITLE1=Roses Of Picardy
TTITLE2=Dixie After Dark
TTITLE3=Air
TTITLE4=Kansas City Stomps
TTITLE5=Chimes Blues
TTITLE6=There's Honey On The Moon Tonight
TTITLE7=Schlafe Mein Prinzchen
TTITLE8=Hiawatha Rag
TTITLE9=Davenport Blues
TTITLE10=Motor March
TTITLE11=Alice Blue Gown
TTITLE12=C'mon Take Me To The Mardi Gras
TTITLE13=Recardo
TTITLE14=Stevedore Stomp
EXTD=YEAR: 1994
EXTT0=
EXTT1=
EXTT2=
EXTT3=
EXTT4=
EXTT5=
EXTT6=
EXTT7=
EXTT8=
EXTT9=
EXTT10=
EXTT11=
EXTT12=
EXTT13=
EXTT14=
PLAYORDER=
